<svg width="23" height="23" viewBox="0 0 23 23" fill="none" xmlns="http://www.w3.org/2000/svg">
<path d="M20.5 1H2.5C2.10218 1 1.72064 1.15804 1.43934 1.43934C1.15804 1.72064 1 2.10218 1 2.5V20.5C1 20.8978 1.15804 21.2794 1.43934 21.5607C1.72064 21.842 2.10218 22 2.5 22H11V14H9V11H11V9C11 7.93913 11.4214 6.92172 12.1716 6.17157C12.9217 5.42143 13.9391 5 15 5H18V8H15C14.7348 8 14.4804 8.10536 14.2929 8.29289C14.1054 8.48043 14 8.73478 14 9V11H18L17.5 14H14V22H20.5C20.8978 22 21.2794 21.842 21.5607 21.5607C21.842 21.2794 22 20.8978 22 20.5V2.5C22 2.10218 21.842 1.72064 21.5607 1.43934C21.2794 1.15804 20.8978 1 20.5 1Z" stroke="#FBFEFF" stroke-width="2" stroke-linecap="round" stroke-linejoin="round"/>
</svg>
