<svg width="36" height="36" viewBox="0 0 36 36" fill="none" xmlns="http://www.w3.org/2000/svg">
<path d="M14.125 34.75H21.625M31 34.75V4.75C31 3.75544 30.6049 2.80161 29.9016 2.09835C29.1984 1.39509 28.2446 1 27.25 1H8.5C7.50544 1 6.55161 1.39509 5.84835 2.09835C5.14509 2.80161 4.75 3.75544 4.75 4.75V34.75H31ZM31 34.75H34.75H31ZM31 34.75H21.625H31ZM4.75 34.75H1H4.75ZM4.75 34.75H14.125H4.75ZM12.25 8.5H14.125H12.25ZM12.25 16H14.125H12.25ZM21.625 8.5H23.5H21.625ZM21.625 16H23.5H21.625ZM14.125 34.75V25.375C14.125 24.8777 14.3225 24.4008 14.6742 24.0492C15.0258 23.6975 15.5027 23.5 16 23.5H19.75C20.2473 23.5 20.7242 23.6975 21.0758 24.0492C21.4275 24.4008 21.625 24.8777 21.625 25.375V34.75H14.125Z" stroke="#D3E5FF" stroke-width="2" stroke-linecap="round" stroke-linejoin="round"/>
</svg>
