<svg width="25" height="21" viewBox="0 0 25 21" fill="none" xmlns="http://www.w3.org/2000/svg">
<path d="M24.679 1.46794C24.6791 1.2698 24.6267 1.07517 24.5272 0.903859C24.4276 0.73255 24.2844 0.590687 24.1122 0.492718C23.94 0.394749 23.7449 0.344173 23.5467 0.346141C23.3486 0.348109 23.1545 0.402551 22.9843 0.503923C22.3277 0.894729 21.6208 1.19401 20.8832 1.39348C19.8299 0.489601 18.4864 -0.00501682 17.0984 3.83692e-05C15.5757 0.00179127 14.1133 0.595238 13.0199 1.65507C11.9266 2.71489 11.2879 4.15814 11.2387 5.68006C8.23689 5.20136 5.51623 3.63455 3.59556 1.27842C3.47984 1.13802 3.33205 1.0275 3.16465 0.956191C2.99726 0.884883 2.81517 0.854874 2.63374 0.868697C2.45242 0.883628 2.27747 0.942501 2.12401 1.04023C1.97054 1.13795 1.8432 1.27159 1.75298 1.42958C1.29028 2.23704 1.02454 3.14224 0.977337 4.07167C0.930132 5.00111 1.10279 5.92858 1.4813 6.77876L1.47911 6.78095C1.30899 6.88572 1.1686 7.0324 1.07136 7.20693C0.974117 7.38147 0.923279 7.57804 0.923706 7.77783C0.921647 7.94265 0.931533 8.1074 0.953287 8.27079C1.06786 9.68227 1.69341 11.0035 2.71261 11.9866C2.64347 12.1184 2.60127 12.2625 2.58848 12.4107C2.57569 12.559 2.59257 12.7082 2.63812 12.8499C3.08246 14.2343 4.02742 15.4031 5.28807 16.1275C4.00729 16.6228 2.62435 16.7955 1.26111 16.6303C1.00879 16.5987 0.75321 16.6537 0.536281 16.7864C0.319353 16.9191 0.153961 17.1216 0.0672354 17.3606C-0.0194898 17.5997 -0.0223987 17.8611 0.0589858 18.102C0.14037 18.3429 0.301216 18.549 0.515138 18.6865C2.85973 20.1966 5.58963 20.9995 8.37843 20.9991C11.541 21.0347 14.6266 20.0241 17.1554 18.1245C19.6841 16.225 21.5142 13.5429 22.361 10.4957C22.757 9.16821 22.9592 7.7905 22.9613 6.40522C22.9613 6.33183 22.9613 6.25624 22.9602 6.18066C23.5459 5.54903 23.9996 4.80684 24.2948 3.99759C24.5899 3.18835 24.7205 2.32833 24.679 1.46794ZM20.9697 5.07094C20.7845 5.29007 20.6907 5.57214 20.7079 5.85859C20.7189 6.04368 20.7178 6.22989 20.7178 6.40522C20.7155 7.57583 20.5439 8.73995 20.2084 9.86144C19.5168 12.4543 17.9751 14.74 15.8302 16.3526C13.6853 17.9652 11.0613 18.8114 8.37843 18.7556C7.4147 18.7559 6.45429 18.6426 5.51707 18.4182C6.7122 18.033 7.82968 17.4392 8.81772 16.6643C8.99969 16.521 9.13288 16.3249 9.19899 16.103C9.2651 15.881 9.2609 15.644 9.18697 15.4245C9.11304 15.205 8.973 15.0137 8.78606 14.877C8.59912 14.7402 8.37445 14.6647 8.14286 14.6607C7.21049 14.6462 6.32015 14.2703 5.65943 13.6123C5.82704 13.5806 5.99356 13.5411 6.15897 13.494C6.40128 13.425 6.61333 13.2765 6.76098 13.0724C6.90862 12.8683 6.98326 12.6204 6.97289 12.3686C6.96252 12.1169 6.86773 11.876 6.70379 11.6847C6.53986 11.4934 6.31631 11.3628 6.06914 11.314C5.52793 11.2072 5.01866 10.9769 4.58091 10.6412C4.14317 10.3055 3.78874 9.87331 3.54517 9.37833C3.74791 9.406 3.95194 9.42319 4.15645 9.42982C4.3994 9.43349 4.63723 9.35979 4.83553 9.21938C5.03384 9.07897 5.18235 8.87913 5.25959 8.64875C5.3336 8.41628 5.32979 8.16601 5.24874 7.9359C5.16769 7.70579 5.01381 7.50839 4.81044 7.37362C4.31704 7.04491 3.91286 6.59895 3.63411 6.07569C3.35537 5.55243 3.21076 4.9682 3.21325 4.37533C3.21325 4.30084 3.21543 4.22635 3.21982 4.15295C5.73398 6.49772 8.99501 7.87995 12.4284 8.05611C12.6017 8.06294 12.7743 8.0303 12.9331 7.96065C13.092 7.891 13.2329 7.78617 13.3453 7.65407C13.4565 7.5207 13.5353 7.36332 13.5754 7.19433C13.6155 7.02533 13.6158 6.84934 13.5764 6.6802C13.5122 6.41251 13.4795 6.13825 13.4789 5.86297C13.4799 4.90335 13.8616 3.98331 14.5401 3.30476C15.2187 2.6262 16.1387 2.24454 17.0983 2.24353C17.5921 2.24221 18.0807 2.34325 18.5334 2.54029C18.9861 2.73732 19.3931 3.02607 19.7286 3.3883C19.8579 3.52749 20.0208 3.63127 20.2016 3.68976C20.3824 3.74825 20.5752 3.7595 20.7616 3.72246C21.2224 3.63278 21.6766 3.51201 22.1211 3.36096C21.8179 3.98127 21.4304 4.5567 20.9697 5.07094Z" fill="#FBFEFF"/>
</svg>
