<svg width="24" height="23" viewBox="0 0 24 23" fill="none" xmlns="http://www.w3.org/2000/svg">
<path d="M17.2065 1H7.16652C4.14 1 1.68652 3.45348 1.68652 6.48V16.52C1.68652 19.5465 4.14 22 7.16652 22H17.2065C20.233 22 22.6865 19.5465 22.6865 16.52V6.48C22.6865 3.45348 20.233 1 17.2065 1Z" stroke="#FBFEFF" stroke-width="2" stroke-linecap="round" stroke-linejoin="round"/>
<path d="M12.1865 17C15.2241 17 17.6865 14.5376 17.6865 11.5C17.6865 8.46243 15.2241 6 12.1865 6C9.14896 6 6.68652 8.46243 6.68652 11.5C6.68652 14.5376 9.14896 17 12.1865 17Z" stroke="#FBFEFF" stroke-width="2" stroke-linecap="round" stroke-linejoin="round"/>
<path d="M18.1865 5C18.4627 5 18.6865 4.77614 18.6865 4.5C18.6865 4.22386 18.4627 4 18.1865 4C17.9104 4 17.6865 4.22386 17.6865 4.5C17.6865 4.77614 17.9104 5 18.1865 5Z" stroke="#FBFEFF" stroke-width="2" stroke-linecap="round" stroke-linejoin="round"/>
</svg>
