<svg width="31" height="21" viewBox="0 0 31 21" fill="none" xmlns="http://www.w3.org/2000/svg">
<path d="M29.9967 6.15697C29.9977 4.65517 29.429 3.20889 28.4054 2.11004C27.3817 1.01118 25.9793 0.341576 24.4812 0.236372C18.4879 -0.0752386 12.4011 -0.0752386 6.44933 0.215598C3.5202 0.215598 0.913059 3.04086 0.913059 6.15697C0.611012 9.16857 0.611012 12.2028 0.913059 15.2144C0.910273 16.6746 1.48554 18.0766 2.51317 19.1139C3.54081 20.1513 4.93725 20.7397 6.3974 20.7507C9.40963 20.9169 12.4288 21 15.4549 21C18.4809 21 21.4828 20.9204 24.4604 20.7611C25.9154 20.7585 27.3111 20.1844 28.3467 19.1624C29.3823 18.1404 29.9749 16.7524 29.9967 15.2975C30.4221 12.2655 30.4221 9.18897 29.9967 6.15697ZM27.9193 15.121C27.9142 15.1623 27.9142 15.2042 27.9193 15.2456C27.9166 15.7048 27.8233 16.1589 27.6447 16.582C27.4661 17.0051 27.2058 17.3888 26.8787 17.7111C26.5516 18.0333 26.1641 18.2879 25.7384 18.4602C25.3128 18.6324 24.8573 18.719 24.3981 18.7149C18.4192 19.0265 12.4282 19.0265 6.44933 18.7149C5.98657 18.7109 5.52922 18.6149 5.1039 18.4325C4.67858 18.25 4.29379 17.9849 3.97191 17.6524C3.65003 17.3199 3.3975 16.9266 3.22901 16.4956C3.06051 16.0646 2.97942 15.6044 2.99046 15.1417C2.694 12.2166 2.694 9.26904 2.99046 6.34393C2.99513 6.30599 2.99513 6.26762 2.99046 6.22967C2.98241 5.25471 3.3374 4.31164 3.98634 3.58398C4.63528 2.85632 5.53175 2.39614 6.50127 2.293C9.47195 2.15797 12.4634 2.09565 15.4549 2.09565C18.4463 2.09565 21.4378 2.15797 24.4085 2.293H24.4604C26.2366 2.293 27.9193 4.20421 27.9193 6.22967C27.9141 6.28148 27.9141 6.33367 27.9193 6.38548C28.326 9.27614 28.326 12.2095 27.9193 15.1002V15.121Z" fill="#FBFEFF"/>
<path d="M20.4303 9.80237L13.014 5.97995C12.8926 5.9172 12.76 5.87898 12.6238 5.86747C12.4877 5.85596 12.3506 5.87138 12.2203 5.91285C12.0901 5.95433 11.9694 6.02104 11.8649 6.10919C11.7605 6.19734 11.6745 6.30519 11.6117 6.42659C11.549 6.54799 11.5108 6.68056 11.4992 6.81673C11.4877 6.9529 11.5032 7.09 11.5446 7.22021C11.5861 7.35042 11.6528 7.47119 11.741 7.57562C11.8291 7.68005 11.937 7.76609 12.0584 7.82883L17.6985 10.7268L13.5437 12.8769V10.7268C13.5437 10.4513 13.4343 10.1871 13.2395 9.99234C13.0447 9.79754 12.7805 9.68811 12.505 9.68811C12.2295 9.68811 11.9653 9.79754 11.7705 9.99234C11.5757 10.1871 11.4663 10.4513 11.4663 10.7268V14.5908C11.4663 14.8663 11.5757 15.1305 11.7705 15.3252C11.9653 15.52 12.2295 15.6295 12.505 15.6295C12.6711 15.6301 12.835 15.591 12.9828 15.5152L20.3991 11.6513C20.5685 11.5635 20.7104 11.4308 20.8094 11.2678C20.9083 11.1047 20.9604 10.9175 20.96 10.7268C20.9634 10.5392 20.916 10.3543 20.8227 10.1915C20.7295 10.0287 20.5938 9.89426 20.4303 9.80237Z" fill="#FBFEFF"/>
</svg>
