<svg width="27" height="22" viewBox="0 0 27 22" fill="none" xmlns="http://www.w3.org/2000/svg">
<path d="M23.9167 1.05737L15.0417 12.0803C14.5852 12.3848 14.0487 12.5474 13.5 12.5474C12.9513 12.5474 12.4148 12.3848 11.9583 12.0803L2.38889 1.05737L13.5 1.03074L23.9167 1.05737ZM23.9167 1.05737C24.6534 1.05737 24.6655 0.900701 25.1864 1.42164C25.7073 1.94257 26 2.64911 26 3.38582V17.2747C26 18.0114 25.7073 18.718 25.1864 19.2389C24.6655 19.7598 23.9589 20.0525 23.2222 20.0525H3.77778C3.04107 20.0525 2.33453 19.7598 1.81359 19.2389C1.29266 18.718 1 18.0114 1 17.2747V3.38582C1 2.64911 1.29266 1.94257 1.81359 1.42164C2.33453 0.900701 4.42995 1.00943 5.16667 1.00943L23.9167 1.05737Z" stroke="#D3E5FF" stroke-width="2" stroke-linecap="round" stroke-linejoin="round"/>
</svg>
