<svg width="27" height="27" viewBox="0 0 27 27" fill="none" xmlns="http://www.w3.org/2000/svg">
<path d="M1 3.77778C1 3.04107 1.29266 2.33453 1.81359 1.81359C2.33453 1.29266 3.04107 1 3.77778 1H8.33333C8.62471 1.00022 8.90864 1.09208 9.14494 1.26257C9.38123 1.43306 9.55792 1.67355 9.65 1.95L11.7306 8.19028C11.836 8.50742 11.8235 8.85193 11.6954 9.16062C11.5674 9.46931 11.3323 9.72146 11.0333 9.87083L7.89861 11.4403C9.43516 14.841 12.159 17.5648 15.5597 19.1014L17.1292 15.9667C17.2785 15.6677 17.5307 15.4326 17.8394 15.3046C18.1481 15.1765 18.4926 15.164 18.8097 15.2694L25.05 17.35C25.3267 17.4422 25.5673 17.6191 25.7378 17.8556C25.9083 18.0922 26.0001 18.3764 26 18.6681V23.2222C26 23.9589 25.7073 24.6655 25.1864 25.1864C24.6655 25.7073 23.9589 26 23.2222 26H21.8333C10.3278 26 1 16.6722 1 5.16667V3.77778Z" stroke="#D3E5FF" stroke-width="2" stroke-linecap="round" stroke-linejoin="round"/>
</svg>
