<svg width="24" height="23" viewBox="0 0 24 23" fill="none" xmlns="http://www.w3.org/2000/svg">
<path d="M21.3422 1H3.34216C2.94434 1 2.56281 1.15804 2.2815 1.43934C2.0002 1.72064 1.84216 2.10218 1.84216 2.5V20.5C1.84216 20.8978 2.0002 21.2794 2.2815 21.5607C2.56281 21.842 2.94434 22 3.34216 22H11.8422V14H9.84216V11H11.8422V9C11.8422 7.93913 12.2636 6.92172 13.0137 6.17157C13.7639 5.42143 14.7813 5 15.8422 5H18.8422V8H15.8422C15.5769 8 15.3226 8.10536 15.1351 8.29289C14.9475 8.48043 14.8422 8.73478 14.8422 9V11H18.8422L18.3422 14H14.8422V22H21.3422C21.74 22 22.1215 21.842 22.4028 21.5607C22.6841 21.2794 22.8422 20.8978 22.8422 20.5V2.5C22.8422 2.10218 22.6841 1.72064 22.4028 1.43934C22.1215 1.15804 21.74 1 21.3422 1Z" stroke="#FBFEFF" stroke-width="2" stroke-linecap="round" stroke-linejoin="round"/>
</svg>
