<svg width="24" height="23" viewBox="0 0 24 23" fill="none" xmlns="http://www.w3.org/2000/svg">
<path d="M17.0487 1H7.00869C3.98217 1 1.52869 3.45348 1.52869 6.48V16.52C1.52869 19.5465 3.98217 22 7.00869 22H17.0487C20.0752 22 22.5287 19.5465 22.5287 16.52V6.48C22.5287 3.45348 20.0752 1 17.0487 1Z" stroke="#FBFEFF" stroke-width="2" stroke-linecap="round" stroke-linejoin="round"/>
<path d="M12.0287 17C15.0663 17 17.5287 14.5376 17.5287 11.5C17.5287 8.46243 15.0663 6 12.0287 6C8.99112 6 6.52869 8.46243 6.52869 11.5C6.52869 14.5376 8.99112 17 12.0287 17Z" stroke="#FBFEFF" stroke-width="2" stroke-linecap="round" stroke-linejoin="round"/>
<path d="M18.0287 5C18.3048 5 18.5287 4.77614 18.5287 4.5C18.5287 4.22386 18.3048 4 18.0287 4C17.7525 4 17.5287 4.22386 17.5287 4.5C17.5287 4.77614 17.7525 5 18.0287 5Z" stroke="#FBFEFF" stroke-width="2" stroke-linecap="round" stroke-linejoin="round"/>
</svg>
