<svg width="30" height="30" viewBox="0 0 30 30" fill="none" xmlns="http://www.w3.org/2000/svg">
<path d="M23.2664 0H6.73363C3.01475 0 0 3.01475 0 6.73363V23.2664C0 26.9852 3.01475 30 6.73363 30H23.2664C26.9852 30 30 26.9852 30 23.2664V6.73363C30 3.01475 26.9852 0 23.2664 0Z" fill="#0B86CA"/>
<path d="M8.31322 12.4697H11.4306V22.5286H8.31322V12.4697ZM9.90311 7.47144C10.2603 7.47144 10.6094 7.57723 10.9065 7.77545C11.2037 7.97367 11.4354 8.25545 11.5726 8.58523C11.7097 8.91501 11.7461 9.27803 11.6772 9.62848C11.6083 9.97893 11.4371 10.3011 11.1853 10.5544C10.9334 10.8077 10.6122 10.9807 10.2622 11.0516C9.91213 11.1226 9.54891 11.0882 9.21834 10.953C8.88778 10.8177 8.60468 10.5876 8.40476 10.2916C8.20484 9.99564 8.09705 9.64709 8.095 9.28993C8.09363 9.05161 8.13939 8.81538 8.22964 8.59481C8.31989 8.37424 8.45286 8.17369 8.62089 8.00469C8.78893 7.83569 8.98872 7.70157 9.20877 7.61006C9.42881 7.51854 9.66479 7.47143 9.90311 7.47144V7.47144ZM13.4258 12.4697H16.4289V13.8414C16.7295 13.3283 17.1638 12.9066 17.6854 12.6211C18.207 12.3356 18.7963 12.1971 19.3905 12.2203C22.5079 12.2203 23.1418 14.2986 23.1418 17.0108V22.5286H20.0243V17.6654C20.0243 16.5016 20.0243 14.9948 18.4033 14.9948C16.7822 14.9948 16.5328 16.2626 16.5328 17.5719V22.5494H13.4154L13.4258 12.4697Z" fill="white"/>
</svg>
