<svg width="26" height="21" viewBox="0 0 26 21" fill="none" xmlns="http://www.w3.org/2000/svg">
<path d="M25.5212 1.46794C25.5213 1.2698 25.4689 1.07517 25.3693 0.903859C25.2698 0.73255 25.1266 0.590687 24.9544 0.492718C24.7822 0.394749 24.587 0.344173 24.3889 0.346141C24.1908 0.348109 23.9967 0.402551 23.8265 0.503923C23.1699 0.894729 22.463 1.19401 21.7254 1.39348C20.672 0.489601 19.3286 -0.00501682 17.9406 3.83692e-05C16.4179 0.00179127 14.9554 0.595238 13.8621 1.65507C12.7687 2.71489 12.1301 4.15814 12.0809 5.68006C9.07905 5.20136 6.35839 3.63455 4.43773 1.27842C4.322 1.13802 4.17421 1.0275 4.00681 0.956191C3.83942 0.884883 3.65733 0.854874 3.47591 0.868697C3.29458 0.883628 3.11963 0.942501 2.96617 1.04023C2.81271 1.13795 2.68536 1.27159 2.59514 1.42958C2.13245 2.23704 1.86671 3.14224 1.8195 4.07167C1.7723 5.00111 1.94496 5.92858 2.32346 6.77876L2.32128 6.78095C2.15116 6.88572 2.01076 7.0324 1.91352 7.20693C1.81628 7.38147 1.76544 7.57804 1.76587 7.77783C1.76381 7.94265 1.7737 8.1074 1.79545 8.27079C1.91002 9.68227 2.53557 11.0035 3.55478 11.9866C3.48564 12.1184 3.44344 12.2625 3.43065 12.4107C3.41785 12.559 3.43473 12.7082 3.48028 12.8499C3.92463 14.2343 4.86958 15.4031 6.13023 16.1275C4.84945 16.6228 3.46652 16.7955 2.10327 16.6303C1.85096 16.5987 1.59537 16.6537 1.37844 16.7864C1.16152 16.9191 0.996124 17.1216 0.909398 17.3606C0.822673 17.5997 0.819764 17.8611 0.901149 18.102C0.982533 18.3429 1.14338 18.549 1.3573 18.6865C3.70189 20.1966 6.43179 20.9995 9.2206 20.9991C12.3831 21.0347 15.4688 20.0241 17.9975 18.1245C20.5263 16.225 22.3564 13.5429 23.2031 10.4957C23.5992 9.16821 23.8014 7.7905 23.8035 6.40522C23.8035 6.33183 23.8035 6.25624 23.8024 6.18066C24.3881 5.54903 24.8418 4.80684 25.1369 3.99759C25.4321 3.18835 25.5627 2.32833 25.5212 1.46794ZM21.8119 5.07094C21.6266 5.29007 21.5329 5.57214 21.5501 5.85859C21.561 6.04368 21.5599 6.22989 21.5599 6.40522C21.5576 7.57583 21.3861 8.73995 21.0505 9.86144C20.359 12.4543 18.8173 14.74 16.6724 16.3526C14.5275 17.9652 11.9035 18.8114 9.2206 18.7556C8.25687 18.7559 7.29646 18.6426 6.35923 18.4182C7.55437 18.033 8.67184 17.4392 9.65988 16.6643C9.84186 16.521 9.97504 16.3249 10.0412 16.103C10.1073 15.881 10.1031 15.644 10.0291 15.4245C9.9552 15.205 9.81516 15.0137 9.62822 14.877C9.44128 14.7402 9.21661 14.6647 8.98503 14.6607C8.05265 14.6462 7.16231 14.2703 6.50159 13.6123C6.6692 13.5806 6.83572 13.5411 7.00113 13.494C7.24345 13.425 7.4555 13.2765 7.60314 13.0724C7.75078 12.8683 7.82543 12.6204 7.81505 12.3686C7.80468 12.1169 7.70989 11.876 7.54596 11.6847C7.38202 11.4934 7.15847 11.3628 6.9113 11.314C6.37009 11.2072 5.86082 10.9769 5.42308 10.6412C4.98533 10.3055 4.6309 9.87331 4.38734 9.37833C4.59007 9.406 4.7941 9.42319 4.99861 9.42982C5.24156 9.43349 5.47939 9.35979 5.6777 9.21938C5.876 9.07897 6.02451 8.87913 6.10175 8.64875C6.17576 8.41628 6.17195 8.16601 6.0909 7.9359C6.00985 7.70579 5.85597 7.50839 5.65261 7.37362C5.1592 7.04491 4.75502 6.59895 4.47628 6.07569C4.19753 5.55243 4.05293 4.9682 4.05541 4.37533C4.05541 4.30084 4.0576 4.22635 4.06198 4.15295C6.57614 6.49772 9.83717 7.87995 13.2705 8.05611C13.4438 8.06294 13.6164 8.0303 13.7753 7.96065C13.9341 7.891 14.0751 7.78617 14.1874 7.65407C14.2987 7.5207 14.3775 7.36332 14.4176 7.19433C14.4577 7.02533 14.458 6.84934 14.4185 6.6802C14.3544 6.41251 14.3217 6.13825 14.321 5.86297C14.3221 4.90335 14.7037 3.98331 15.3823 3.30476C16.0608 2.6262 16.9809 2.24454 17.9405 2.24353C18.4342 2.24221 18.9229 2.34325 19.3756 2.54029C19.8283 2.73732 20.2352 3.02607 20.5707 3.3883C20.7001 3.52749 20.8629 3.63127 21.0438 3.68976C21.2246 3.74825 21.4173 3.7595 21.6037 3.72246C22.0645 3.63278 22.5187 3.51201 22.9632 3.36096C22.66 3.98127 22.2726 4.5567 21.8119 5.07094Z" fill="#FBFEFF"/>
</svg>
