<svg width="30" height="30" viewBox="0 0 30 30" fill="none" xmlns="http://www.w3.org/2000/svg">
<path d="M23.6019 0H6.39813C2.86454 0 0 2.86454 0 6.39813V23.6019C0 27.1355 2.86454 30 6.39813 30H23.6019C27.1355 30 30 27.1355 30 23.6019V6.39813C30 2.86454 27.1355 0 23.6019 0Z" fill="#0A93E2"/>
<path fill-rule="evenodd" clip-rule="evenodd" d="M24.1251 10.4479C23.4789 10.7344 22.7831 10.9287 22.0543 11.0154C22.7989 10.5687 23.37 9.86236 23.6406 9.02052C22.9435 9.43307 22.1712 9.73363 21.3502 9.89534C20.6924 9.19406 19.7548 8.75665 18.7173 8.75665C16.725 8.75665 15.1114 10.372 15.1114 12.3625C15.1114 12.6449 15.1426 12.921 15.2045 13.1848C12.2077 13.0339 9.54992 11.5984 7.77181 9.41591C7.46057 9.94909 7.28343 10.5687 7.28343 11.2293C7.28343 12.4809 7.92009 13.5852 8.88668 14.2314C8.29564 14.2129 7.74026 14.0501 7.25312 13.7795C7.25312 13.7953 7.25312 13.8098 7.25312 13.8256C7.25312 15.5721 8.49662 17.0297 10.146 17.3609C9.84411 17.4436 9.52507 17.4883 9.19659 17.4883C8.96434 17.4883 8.7384 17.4658 8.51751 17.4238C8.97741 18.8565 10.3091 19.8991 11.8874 19.9279C10.653 20.8958 9.09813 21.471 7.40808 21.471C7.11629 21.471 6.82888 21.4552 6.54785 21.4212C8.14339 22.4442 10.0385 23.0416 12.075 23.0416C18.7083 23.0416 22.3366 17.5458 22.3366 12.7804C22.3366 12.6241 22.3327 12.4691 22.3263 12.3141C23.0312 11.8058 23.642 11.1704 24.1252 10.4479L24.1251 10.4479Z" fill="white"/>
</svg>
