<svg width="31" height="21" viewBox="0 0 31 21" fill="none" xmlns="http://www.w3.org/2000/svg">
<path d="M29.8388 6.15697C29.8399 4.65517 29.2712 3.20889 28.2475 2.11004C27.2239 1.01118 25.8214 0.341576 24.3233 0.236372C18.33 -0.0752386 12.2433 -0.0752386 6.2915 0.215598C3.36236 0.215598 0.755222 3.04086 0.755222 6.15697C0.453175 9.16857 0.453175 12.2028 0.755222 15.2144C0.752436 16.6746 1.32771 18.0766 2.35534 19.1139C3.38297 20.1513 4.77942 20.7397 6.23956 20.7507C9.25179 20.9169 12.271 21 15.297 21C18.3231 21 21.325 20.9204 24.3026 20.7611C25.7575 20.7585 27.1533 20.1844 28.1889 19.1624C29.2245 18.1404 29.817 16.7524 29.8388 15.2975C30.2642 12.2655 30.2642 9.18897 29.8388 6.15697ZM27.7614 15.121C27.7563 15.1623 27.7563 15.2042 27.7614 15.2456C27.7587 15.7048 27.6654 16.1589 27.4869 16.582C27.3083 17.0051 27.048 17.3888 26.7209 17.7111C26.3938 18.0333 26.0063 18.2879 25.5806 18.4602C25.1549 18.6324 24.6994 18.719 24.2402 18.7149C18.2614 19.0265 12.2704 19.0265 6.2915 18.7149C5.82873 18.7109 5.37138 18.6149 4.94606 18.4325C4.52074 18.25 4.13595 17.9849 3.81407 17.6524C3.49219 17.3199 3.23966 16.9266 3.07117 16.4956C2.90268 16.0646 2.82159 15.6044 2.83262 15.1417C2.53616 12.2166 2.53616 9.26904 2.83262 6.34393C2.8373 6.30599 2.8373 6.26762 2.83262 6.22967C2.82457 5.25471 3.17956 4.31164 3.8285 3.58398C4.47744 2.85632 5.37391 2.39614 6.34343 2.293C9.31412 2.15797 12.3056 2.09565 15.297 2.09565C18.2885 2.09565 21.2799 2.15797 24.2506 2.293H24.3026C26.0787 2.293 27.7614 4.20421 27.7614 6.22967C27.7563 6.28148 27.7563 6.33367 27.7614 6.38548C28.1681 9.27614 28.1681 12.2095 27.7614 15.1002V15.121Z" fill="#FBFEFF"/>
<path d="M20.2723 9.80237L12.856 5.97995C12.7346 5.9172 12.602 5.87898 12.4659 5.86747C12.3297 5.85596 12.1926 5.87138 12.0624 5.91285C11.9322 5.95433 11.8114 6.02104 11.707 6.10919C11.6026 6.19734 11.5165 6.30519 11.4538 6.42659C11.391 6.54799 11.3528 6.68056 11.3413 6.81673C11.3298 6.9529 11.3452 7.09 11.3867 7.22021C11.4281 7.35042 11.4949 7.47119 11.583 7.57562C11.6712 7.68005 11.779 7.76609 11.9004 7.82883L17.5406 10.7268L13.3858 12.8769V10.7268C13.3858 10.4513 13.2763 10.1871 13.0815 9.99234C12.8867 9.79754 12.6225 9.68811 12.3471 9.68811C12.0716 9.68811 11.8074 9.79754 11.6126 9.99234C11.4178 10.1871 11.3083 10.4513 11.3083 10.7268V14.5908C11.3083 14.8663 11.4178 15.1305 11.6126 15.3252C11.8074 15.52 12.0716 15.6295 12.3471 15.6295C12.5132 15.6301 12.677 15.591 12.8249 15.5152L20.2412 11.6513C20.4105 11.5635 20.5525 11.4308 20.6514 11.2678C20.7503 11.1047 20.8025 10.9175 20.8021 10.7268C20.8055 10.5392 20.758 10.3543 20.6648 10.1915C20.5715 10.0287 20.4359 9.89426 20.2723 9.80237Z" fill="#FBFEFF"/>
</svg>
